<?xml version="1.0" encoding="UTF-8"?>
<svg id="_图层_2" data-name="图层_2" xmlns="http://www.w3.org/2000/svg" viewBox="0 0 380 382">
  <defs>
    <style>
      .cls-1 {
        fill: #5a9fd4;
      }

      .cls-2 {
        fill: #ffd43b;
      }
    </style>
  </defs>
  <g id="python">
    <path id="p" class="cls-2" d="M192,382c16,0,31-1,44-4,39-7,46-21,46-47v-35h-92v-12h126c27,0,50-16,58-46,8-35,8-57,0-93-7-28-23-47-49-47h-32v42c0,30-26,57-57,57h-91c-26,0-46,21-46,46v88c0,24,21,43,46,47,15,3,32,4,47,4ZM242,354c-10,0-17-8-17-18,0-9,7-17,17-17,9,0,17,8,17,17,0,10-8,18-17,18Z"/>
    <path id="p-2" data-name="p" class="cls-1" d="M188,0c-16,0-31,1-44,4-39,7-46,21-46,47v35h92v12h-126c-27,0-50,16-58,46-8,35-8,57,0,93,7,28,23,47,49,47h32v-42c0-30,26-57,57-57h91c26,0,46-21,46-46V51c0-24-21-43-46-47-15-3-32-4-47-4ZM138,28c10,0,17,8,17,18,0,9-7,17-17,17-9,0-17-8-17-17,0-10,8-18,17-18Z"/>
  </g>
</svg>